PathFileType	4	(X/Y/Z)	D:\TRACE\spot_10-12-23\spot_arm_motion_2_2-v60.trc
DataRate	CameraRate	NumFrames	NumMarkers	Units	OrigDataRate	OrigDataStartFrame	OrigNumFrames
100.00	100.00	      21	9	mm	100.00	876	      7000
Frame#	Time	front left toe			Front right toe			aft left toe			aft right toe			Arm			FL body			FR body			AL Body			AR Body			
		X1	Y1	Z1	X2	Y2	Z2	X3	Y3	Z3	X4	Y4	Z4	X5	Y5	Z5	X6	Y6	Z6	X7	Y7	Z7	X8	Y8	Z8	X9	Y9	Z9	

876	8.750	-232.95087	14.47327	-97.30432	244.52408	19.50410	4.73510	-349.70953	56.86874	484.01324	118.93391	56.21497	584.81635	-28.43931	829.74121	-696.87549	-32.65326	557.60541	-123.69324	115.52361	566.09705	-93.27580	-214.76390	568.52533	741.51495	-67.85158	569.78296	773.96320	
877	8.760	-232.97041	14.17282	-97.44054	244.49265	19.39402	4.39237	-350.08466	57.59253	483.82669	119.62163	57.67491	585.06067	-31.74509	825.06659	-695.53125	-33.25358	557.26501	-124.17874	115.06775	565.11774	-94.23972	-215.46941	569.96362	740.94861	-68.53817	571.16309	773.00732	
878	8.770	-232.97202	13.74147	-97.52047	244.60997	19.35479	4.15501	-349.41867	58.16227	483.44232	119.34651	57.73677	584.34161	-35.59653	820.44940	-694.66174	-34.09221	556.37122	-124.70876	114.85123	564.53552	-94.44613	-215.76064	571.65063	740.25909	-69.01662	572.98810	772.50092	
879	8.780	-233.00038	13.26524	-97.63804	244.94832	19.71040	3.87327	-349.49210	58.87059	483.31583	119.28338	58.21009	583.72076	-38.86499	816.48682	-693.91827	-35.06719	555.83289	-125.21504	113.90322	563.64044	-95.18498	-215.80005	573.22888	739.99957	-69.22354	574.73645	772.42078	
880	8.790	-233.04381	13.02166	-97.73655	245.21852	19.80885	3.46519	-348.91510	59.44880	483.11136	118.89825	58.43135	583.15015	-42.00814	812.57526	-693.93018	-36.29519	554.74725	-125.63169	112.84135	562.89081	-95.66932	-215.88231	574.51074	739.82159	-69.40462	576.37085	772.00629	
881	8.800	-232.83963	12.61819	-97.84736	245.48372	19.86702	3.28261	-348.13052	59.60077	483.10986	120.81927	60.27874	583.56042	-44.33624	809.49847	-694.21002	-37.32887	553.84656	-125.90320	109.09503	563.61292	-97.44067	-215.77354	576.31689	739.69501	-69.32143	578.12347	771.62195	
882	8.810	-232.62268	12.27308	-97.88714	245.57837	20.03957	2.88331	-347.16406	59.92707	482.96216	121.33392	61.06530	583.22498	-45.97331	806.86096	-694.67896	-38.80647	552.83679	-126.42175	110.00634	561.53699	-96.80709	-215.71089	577.84332	739.55151	-68.91575	579.78021	771.30945	
883	8.820	-232.52069	12.06068	-97.88276	245.75095	20.38795	2.94883	-346.78094	60.44182	482.80927	121.72074	61.69490	583.00281	-46.94336	805.08087	-695.31049	-40.42631	551.71899	-126.55948	108.62072	560.61346	-97.71603	-215.58675	579.25256	739.54291	-68.96873	581.72894	770.58386	
884	8.830	-232.38780	11.83016	-97.87881	246.79379	23.20981	2.70088	-347.06265	61.43537	482.33441	122.30570	62.32282	582.71246	-47.00822	803.75946	-696.02075	-41.92676	551.10028	-127.03664	107.53799	559.84778	-98.13773	-215.48579	581.09058	739.92920	-68.53429	583.61804	770.27484	
885	8.840	-232.26610	11.60484	-97.89780	246.96632	23.27322	2.37781	-346.85645	62.03102	482.09827	122.47836	62.76705	582.30078	-46.70855	803.06775	-696.66022	-43.34743	549.87848	-127.25614	104.11407	560.57062	-99.69138	-215.58272	582.48120	739.69696	-68.71664	585.35114	770.01422	
886	8.850	-232.09669	11.32973	-97.91788	247.73378	22.50803	2.00099	-346.87378	62.52058	482.19907	122.71453	63.39713	581.80536	-45.79033	802.73242	-697.26300	-44.85142	548.87433	-127.40915	103.88995	558.62183	-99.65727	-215.68425	583.98737	739.25867	-68.82961	586.93390	769.62714	
887	8.860	-231.69316	11.08529	-98.08560	246.81796	21.99750	0.47324	-346.41089	62.85656	482.13120	123.15245	63.90268	581.49939	-44.51586	802.82898	-697.83832	-46.20399	548.13794	-127.89841	102.28042	558.15070	-100.21566	-216.46669	585.39520	738.96313	-68.63448	588.27411	769.27435	
888	8.870	-231.18912	10.92032	-98.25186	246.98764	21.22742	1.38684	-346.03763	63.20882	481.87637	123.39891	64.44924	581.30469	-42.86001	803.32642	-698.51373	-47.27561	547.36566	-128.21451	101.36061	557.42993	-100.53110	-216.46117	586.53699	738.74988	-69.00873	589.52197	768.96356	
889	8.880	-230.83130	10.88132	-98.29100	248.10744	21.90907	1.51155	-345.70886	63.41147	481.68988	124.03340	65.10619	581.21173	-40.91886	804.23456	-699.07220	-47.92097	546.71704	-128.52116	101.15222	556.15308	-100.60441	-217.09151	587.90594	738.62280	-69.58772	590.77618	768.40845	
890	8.890	-230.43240	10.80138	-98.35550	248.93852	22.40777	1.74028	-345.28259	63.55246	481.48883	124.38796	65.72720	580.85651	-38.75727	805.23364	-699.22272	-48.85641	546.29553	-128.82869	100.55258	555.21527	-101.05699	-217.66071	588.84344	738.03845	-70.56613	591.68250	767.94727	
891	8.900	-230.01529	10.66492	-98.42625	248.99812	21.95341	1.55807	-344.30515	63.14382	481.63394	124.91573	66.28509	580.81915	-36.47105	806.36481	-699.54352	-49.47101	545.77161	-129.16458	99.88783	554.98065	-101.67005	-218.90993	590.09210	738.19366	-71.18874	592.61700	767.56781	
892	8.910	-228.83524	10.15322	-98.53055	249.75868	21.67501	1.56458	-343.84592	63.25464	481.38556	125.02119	66.60303	580.63788	-35.02977	807.88190	-699.68530	-49.42743	545.35406	-129.51607	99.90759	553.91565	-101.53369	-219.68739	590.95477	737.52222	-72.20760	593.18665	767.16089	
893	8.920	-228.91904	10.56167	-98.85841	250.45056	21.72631	1.52450	-343.58359	63.48431	481.00372	125.19702	67.01051	580.44098	-33.14872	809.30865	-699.68683	-49.24880	545.10419	-129.78639	99.32529	553.67938	-101.95088	-220.82440	592.01794	737.21277	-73.24770	593.76495	766.97327	
894	8.930	-228.24883	10.53147	-99.06818	251.03238	21.82545	1.34395	-343.10416	63.43952	480.85001	125.59954	67.52029	580.44135	-31.94731	810.97675	-699.78229	-49.19376	544.92761	-130.07312	100.07265	552.75604	-101.64881	-221.70824	592.61206	735.77081	-74.26343	594.31604	766.31653	
895	8.940	-227.62610	10.63570	-99.20533	251.51949	21.78305	1.23791	-342.79880	63.44354	480.70416	126.25667	68.22561	580.49951	-30.99232	812.43695	-699.76141	-49.00382	544.81696	-130.39119	100.45308	552.12372	-101.71123	-222.36624	593.42395	735.00830	-75.41422	594.53998	766.06451	
896	8.950	-226.93756	10.57606	-99.35664	251.18954	20.85343	1.19928	-343.19611	64.03197	480.40396	126.60886	68.53569	580.42078	-30.58793	813.85822	-699.91772	-48.43214	544.57617	-130.76399	99.91255	552.14838	-102.26132	-223.50540	594.15094	734.39117	-76.25203	594.96155	765.64752	
